<?xml version="1.0" encoding="UTF-8"?>
<!-- Created with Inkscape (http://www.inkscape.org/) -->
<svg width="67.161mm" height="103.79mm" version="1.1" viewBox="0 0 67.161 103.79" xmlns="http://www.w3.org/2000/svg">
 <g transform="translate(-50.919 -28.761)">
  <g transform="matrix(.35278 0 0 -.35278 89.888 105.31)">
   <path d="m0 0c0-0.123-0.1-0.223-0.224-0.223h-30.106c-0.123 0-0.223 0.1-0.223 0.223v30.107c0 0.123 0.1 0.223 0.223 0.223h30.106c0.124 0 0.224-0.1 0.224-0.223zm10.62 41.739h-51.793c-0.435 0-0.789-0.353-0.789-0.789v-51.793c0-0.435 0.354-0.788 0.789-0.788h51.793c0.436 0 0.788 0.353 0.788 0.788v51.793c0 0.436-0.352 0.789-0.788 0.789" fill="#f16522"/>
  </g>
  <g transform="matrix(.35278 0 0 -.35278 84.499 68.203)">
   <path d="m0 0-29.036 29.036 29.036 50.068 29.036-50.068zm88.859-21.871s-77.524 133.67-77.525 133.68h-22.605c-0.02-0.033-77.588-133.68-77.588-133.68-12.994-22.403-5.337-51.199 17.066-64.192l32.876-19.067v30.299l-19.728 11.44c-9.9 5.743-13.284 18.469-7.542 28.37l23.544 40.596 33.251-33.251c0.041-0.042 0.077-0.089 0.119-0.131 2.556-2.556 5.915-3.834 9.273-3.832 3.358-2e-3 6.717 1.276 9.273 3.832 0.042 0.042 0.078 0.089 0.119 0.131l33.251 33.251 23.543-40.596c5.742-9.901 2.359-22.627-7.542-28.37l-19.727-11.44v-30.299l32.876 19.067c22.403 12.993 30.059 41.789 17.066 64.192" fill="#f5ad2a"/>
  </g>
  <g transform="matrix(.35278 0 0 -.35278 78.319 128.45)">
   <path d="m0 0c0-0.123-0.1-0.223-0.224-0.223h-30.106c-0.123 0-0.223 0.1-0.223 0.223v30.106c0 0.123 0.1 0.224 0.223 0.224h30.106c0.124 0 0.224-0.101 0.224-0.224zm10.62 41.738h-51.793c-0.435 0-0.789-0.352-0.789-0.788v-51.794c0-0.434 0.354-0.788 0.789-0.788h51.793c0.436 0 0.788 0.354 0.788 0.788v51.794c0 0.436-0.352 0.788-0.788 0.788" fill="#f16522"/>
  </g>
  <g transform="matrix(.35278 0 0 -.35278 101.46 128.45)">
   <path d="m0 0c0-0.123-0.1-0.223-0.223-0.223h-30.107c-0.123 0-0.223 0.1-0.223 0.223v30.106c0 0.123 0.1 0.224 0.223 0.224h30.107c0.123 0 0.223-0.101 0.223-0.224zm10.62 41.738h-51.793c-0.435 0-0.788-0.352-0.788-0.788v-51.794c0-0.434 0.353-0.788 0.788-0.788h51.793c0.436 0 0.788 0.354 0.788 0.788v51.794c0 0.436-0.352 0.788-0.788 0.788" fill="#f16522"/>
  </g>
 </g>
</svg>
