<svg viewBox="0 0 238 238" width="238" height="238" xmlns="http://www.w3.org/2000/svg">
  <path d="M 6.351 158.491 L 117.766 158.491 L 102.34 175.585 L 6.351 175.585 L 6.351 158.491 Z" fill="#D64500"></path>
  <path fill-rule="evenodd" clip-rule="evenodd" d="M 170.584 238 L 139.83 157.384 L 161.817 127.844 L 205.476 238 L 170.584 238 Z M 107.878 73.626 L 124.465 117.107 L 146.313 88.728 L 119.086 20.038 C 116.435 13.347 109.952 8.952 102.739 8.952 C 95.524 8.952 89.042 13.347 86.391 20.038 L 34.223 151.654 L 68.188 151.654 C 81.274 117.415 94.091 83.892 98.042 73.559 C 98.802 71.572 100.691 70.322 102.823 70.322 L 103.072 70.322 C 105.207 70.322 107.118 71.637 107.878 73.626 Z M 56.429 182.422 C 46.158 209.302 37.48 232.028 35.215 238 L 0 238 L 22.028 182.422 L 56.429 182.422 Z" fill="#222B60"></path>
  <path fill-rule="evenodd" clip-rule="evenodd" d="M 219.448 4.156 C 222.826 -0.397 229.266 -1.357 233.832 2.012 C 238.399 5.381 239.36 11.804 235.982 16.357 L 140.577 144.928 C 140.065 145.62 139.426 146.21 138.692 146.665 L 119.739 158.442 C 118.421 159.262 116.777 158.049 117.177 156.551 L 122.931 135.033 C 123.152 134.202 123.531 133.419 124.043 132.729 L 210.267 16.528 L 208.997 15.591 C 208.236 15.029 207.163 15.189 206.599 15.948 L 178.798 53.415 C 179.27 54.498 179.163 55.795 178.409 56.812 L 173.311 63.682 C 172.185 65.2 170.039 65.52 168.517 64.397 C 166.995 63.274 166.674 61.133 167.801 59.615 L 170.859 55.493 L 172.898 52.745 L 204.504 10.15 C 206.757 7.114 211.05 6.474 214.095 8.72 L 215.365 9.658 L 219.448 4.156 Z" fill="#D64500"></path>
</svg>