<svg width="1069" height="168" viewBox="0 0 1069 168" fill="none" xmlns="http://www.w3.org/2000/svg">
<path fill-rule="evenodd" clip-rule="evenodd" d="M158.188 25.5454L141.104 50.909V146.558H213.841V129.48H158.188V25.5454ZM328.884 70.6363C322.625 39.1854 295.222 27.5181 272.555 27.5181C239.908 27.5181 214.365 52.5436 214.365 87.5454C214.365 122.378 239.4 147.404 272.555 147.404C294.038 147.404 318.396 132.862 326.516 110.204V110.373C328.038 106.484 328.884 99.8891 329.73 89.9127H265.958V106.991H309.769C302.665 124.238 287.102 131.002 272.555 131.002C249.381 131.002 231.45 112.571 231.45 87.5454C231.45 62.6891 249.381 44.5963 272.555 44.5963C287.61 44.5963 305.879 51.5291 310.615 70.6363H328.884ZM433.702 117.982C441.314 110.204 446.219 99.5509 446.219 87.3763C446.219 75.2018 441.314 64.5491 433.702 56.7709C425.751 48.8236 414.756 43.92 403.084 43.92C391.413 43.92 380.587 48.8236 372.805 56.7709C365.024 64.5491 360.119 75.3709 360.119 87.3763C360.119 99.3818 365.024 110.204 372.805 117.982C380.587 125.929 391.413 130.833 403.084 130.833C414.756 130.833 425.751 125.929 433.702 117.982ZM360.457 130.156C349.8 119.165 342.865 104.116 342.865 87.3763C342.865 70.6363 349.8 55.5872 360.457 44.5963C371.283 33.6054 386.507 26.6727 403.084 26.6727C419.831 26.6727 434.886 33.6054 445.881 44.5963C456.538 55.5872 463.473 70.6363 463.473 87.3763C463.473 104.116 456.538 119.165 445.881 130.156C434.886 141.316 419.831 148.08 403.084 148.08C386.507 148.08 371.283 141.316 360.457 130.156ZM559.586 58.1236C556.541 36.48 537.595 27.0109 519.326 27.0109C505.625 27.0109 491.415 32.4218 483.465 42.7363C478.39 49.3309 476.361 57.2782 477.037 65.2254V65.0563C478.898 89.7436 500.55 93.8018 518.988 95.6618C530.829 96.8454 543.008 98.3672 545.038 107.329C545.376 108.851 545.546 110.204 545.546 111.387C545.546 123.562 531.675 130.664 518.988 130.664C507.993 130.664 494.629 124.915 493.445 113.924V114.6L493.276 112.064L476.022 112.402L476.191 115.615C478.39 136.751 500.55 147.573 518.819 147.573C540.133 147.573 562.8 134.384 562.8 111.556C562.8 109.189 562.461 106.315 561.954 103.778C557.387 84.84 537.257 80.6127 521.018 78.5836C508.331 77.4 494.968 75.8781 494.122 63.7036C493.784 59.6454 494.629 55.7563 496.998 52.7127C501.734 46.6254 510.53 43.92 518.481 43.7509C528.799 43.5818 540.302 48.1472 542.67 58.8L559.586 58.1236ZM693.759 27.5181C716.426 27.5181 743.83 39.1854 750.089 70.6363H731.82C727.083 51.5291 708.814 44.5963 693.759 44.5963C670.585 44.5963 652.654 62.6891 652.654 87.5454C652.654 112.571 670.585 131.002 693.759 131.002C708.307 131.002 723.869 124.238 730.974 106.991H687.162V89.9127H750.934C750.089 99.8891 749.243 106.484 747.72 110.373V110.204C739.601 132.862 715.242 147.404 693.759 147.404C660.605 147.404 635.57 122.378 635.57 87.5454C635.57 52.5436 661.112 27.5181 693.759 27.5181ZM784.199 146.558V63.8727L841.374 146.558H854.906V28.1945H837.991V111.556L780.308 28.1945L767.114 28.0254V146.558H784.199ZM943.532 96H889.91V129.48H944.886V146.558H872.656V28.3636H944.716V45.4418H889.91V78.7527H943.532V96ZM982.576 94.6472L1025.71 146.558H1047.87L1010.49 102.087C1030.79 98.5363 1041.1 82.6418 1041.1 65.9018C1041.1 47.1327 1028.25 28.1945 1002.54 28.1945H959.401V146.558H976.317V45.4418H1002.54C1016.91 45.4418 1024.02 55.7563 1024.02 65.9018C1024.02 76.2163 1016.91 86.5309 1002.54 86.5309H982.576V94.6472ZM630.711 28.1945H577.145V45.2727L588.422 45.2727H608.157L612.399 45.2727H630.711V28.1945ZM601.28 50.909L612.399 62.097V129.456H630.711V146.558H577.145V129.456H595.457V50.909H601.28Z" fill="#EFF4F7"/>
<path d="M24.2466 101.917H85.8488L77.3193 111.394H24.2466V101.917Z" fill="#F16522"/>
<path fill-rule="evenodd" clip-rule="evenodd" d="M115.052 146L98.0484 101.303L110.204 84.9246L134.344 146H115.052ZM80.4061 54.9278L89.5531 78.9718L101.632 63.2369L86.5787 25.1513C85.1125 21.4417 81.5286 19.0046 77.5399 19.0046C73.5511 19.0046 69.9673 21.4417 68.5011 25.1513L39.6575 98.1263H58.4365C65.6421 79.2209 72.7004 60.7089 74.9161 54.898C75.3511 53.7573 76.4346 53.0312 77.6554 53.0312C78.8771 53.0312 79.9717 53.786 80.4061 54.9278ZM51.9354 115.185C46.2565 130.089 41.4584 142.689 40.2061 146H20.7354L32.9149 115.185H51.9354Z" fill="#EFF4F7"/>
<path fill-rule="evenodd" clip-rule="evenodd" d="M142.069 16.3458C143.937 13.8213 147.498 13.2891 150.022 15.1571C152.547 17.0252 153.079 20.586 151.211 23.1105L98.4853 94.3652C98.1858 94.7699 97.8126 95.1145 97.3853 95.3807L87.0523 101.82C86.2828 102.299 85.3236 101.589 85.5571 100.713L88.6937 88.9493C88.8234 88.4628 89.0438 88.0052 89.3432 87.6005L136.993 23.2055L136.332 22.7168C135.889 22.3883 135.262 22.4819 134.934 22.9258L119.593 43.6572C119.854 44.2576 119.796 44.9767 119.379 45.5407L116.56 49.3499C115.937 50.1914 114.75 50.3688 113.909 49.7461C113.067 49.1234 112.89 47.9364 113.513 47.0949L116.331 43.2858C116.336 43.2795 116.341 43.2733 116.345 43.2671L133.682 19.8372C134.997 18.0613 137.501 17.687 139.277 19.001L139.812 19.3964L142.069 16.3458Z" fill="#F16522"/>
</svg>
