<svg width="238" height="238" viewBox="0 0 238 238" fill="none" xmlns="http://www.w3.org/2000/svg">
<path d="M55 138H120L111 148H55V138Z" fill="#F16522"/>
<path fill-rule="evenodd" clip-rule="evenodd" d="M150.814 184.514L132.872 137.352L145.699 120.07L171.17 184.514H150.814ZM114.231 88.3511L123.909 113.789L136.654 97.1864L120.77 57.0001C119.223 53.0859 115.441 50.5144 111.233 50.5144C107.024 50.5144 103.242 53.0859 101.695 57.0001L71.261 134H91.0757C98.7103 113.969 106.188 94.3569 108.493 88.3119C108.936 87.1491 110.038 86.4178 111.282 86.4178H111.427C112.673 86.4178 113.788 87.1872 114.231 88.3511ZM84.216 152C78.2239 167.726 73.1611 181.021 71.8397 184.514H51.295L64.1464 152H84.216Z" fill="#EFF4F7"/>
<path fill-rule="evenodd" clip-rule="evenodd" d="M179.321 47.7088C181.292 45.0451 185.049 44.4835 187.713 46.4546C190.377 48.4257 190.938 52.1829 188.967 54.8467L133.308 130.065C133.009 130.47 132.636 130.815 132.208 131.081L121.151 137.971C120.382 138.451 119.423 137.741 119.656 136.865L123.013 124.276C123.142 123.79 123.363 123.332 123.662 122.927L173.965 54.9469L173.224 54.3984C172.78 54.0699 172.154 54.1635 171.825 54.6074L155.606 76.5267C155.881 77.1602 155.82 77.919 155.379 78.5141L152.405 82.5334C151.748 83.4213 150.496 83.6085 149.608 82.9515C148.72 82.2944 148.533 81.042 149.19 80.1541L150.974 77.7425L152.164 76.1348L170.603 51.2153C171.917 49.4394 174.422 49.0651 176.198 50.3791L176.939 50.9276L179.321 47.7088Z" fill="#F16522"/>
</svg>
