<svg width="138.85" height="139.24" version="1.1" viewBox="0 0 138.85 139.24" xmlns="http://www.w3.org/2000/svg"><path d="m3.705 92.723h65l-9 10h-56z" fill="#f16522"/><path d="m99.519 139.24-17.942-47.162 12.827-17.282 25.471 64.444zm-36.583-96.163 9.678 25.438 12.745-16.603-15.884-40.186c-1.547-3.9142-5.329-6.4857-9.537-6.4857-4.209 0-7.991 2.5715-9.538 6.4857l-30.434 77h19.815c7.6346-20.031 15.112-39.643 17.417-45.688 0.443-1.1628 1.545-1.8941 2.789-1.8941h0.145c1.246 0 2.361 0.7694 2.804 1.9333zm-30.015 63.649c-5.9921 15.726-11.055 29.021-12.376 32.514h-20.545l12.851-32.514z" clip-rule="evenodd" fill="#eff4f7" fill-rule="evenodd"/><path d="m128.03 2.4314c1.971-2.6637 5.728-3.2253 8.392-1.2542 2.664 1.9711 3.225 5.7283 1.254 8.3921l-55.659 75.218c-0.299 0.405-0.672 0.75-1.1 1.016l-11.057 6.89c-0.769 0.48-1.728-0.23-1.495-1.106l3.357-12.589c0.129-0.486 0.35-0.944 0.649-1.349l50.303-67.98-0.741-0.5485c-0.444-0.3285-1.07-0.2349-1.399 0.209l-16.219 21.919c0.275 0.6335 0.214 1.3923-0.227 1.9874l-2.974 4.0193c-0.657 0.8879-1.909 1.0751-2.797 0.4181-0.888-0.6571-1.075-1.9095-0.418-2.7974l1.784-2.4116 1.19-1.6077 18.439-24.919c1.314-1.7759 3.819-2.1502 5.595-0.8362l0.741 0.5485z" clip-rule="evenodd" fill="#f16522" fill-rule="evenodd"/></svg>
